<?xml version="1.0" encoding="utf-8"?>
<svg xmlns="http://www.w3.org/2000/svg" height="16" width="16" viewBox="0 0 16 16">
  <g>
    <path id="path1" transform="rotate(0,8,8) translate(1,1) scale(0.4375,0.4375)  " fill="#ACABAB" d="M16,0L18.5,2.8000002 21,5.5 17.9,5.5 17.9,14 26.400001,14 26.400001,11 29.2,13.5 32.000001,16 29.2,18.5 26.5,21 26.5,17.8 18,17.8 18,26.400001 21,26.400001 18.5,29.200001 16,32 13.5,29.200001 11,26.400001 14.2,26.400001 14.2,17.8 5.5,17.8 5.5,21 2.7000003,18.5 0,16 2.8000002,13.5 5.5,11 5.5,14 14.1,14 14.1,5.5 11,5.5 13.5,2.7000008z" />
  </g>
</svg>

