<?xml version="1.0" standalone="no"?>
<!DOCTYPE svg PUBLIC "-//W3C//DTD SVG 20010904//EN"
 "http://www.w3.org/TR/2001/REC-SVG-20010904/DTD/svg10.dtd">
<svg version="1.0" xmlns="http://www.w3.org/2000/svg"
 width="182.000000pt" height="167.000000pt" viewBox="0 0 182.000000 167.000000"
 preserveAspectRatio="xMidYMid meet">

<g transform="translate(0.000000,167.000000) scale(0.100000,-0.100000)"
fill="#000000" stroke="none">
<path d="M1237 1542 c-53 -53 -97 -101 -97 -105 0 -25 46 4 117 75 l83 83 207
-208 208 -207 -95 -95 c-75 -75 -92 -97 -82 -107 10 -10 34 10 120 95 l107
107 -230 230 c-126 126 -232 230 -235 230 -3 0 -49 -44 -103 -98z"/>
<path d="M351 1614 c-81 -22 -144 -60 -210 -128 -65 -69 -94 -119 -116 -203
-41 -156 4 -319 120 -434 61 -60 111 -93 177 -115 l47 -15 -174 -350 c-96
-192 -175 -351 -175 -354 0 -3 394 -5 875 -5 l875 0 0 440 0 440 -93 0 c-86 0
-93 -1 -93 -20 0 -18 7 -20 73 -20 l73 0 0 -400 0 -400 -394 0 c-436 0 -406
-5 -406 66 0 37 -15 44 -49 22 -19 -12 -19 -12 0 -50 l19 -38 -410 0 -410 0
191 382 c105 211 193 395 196 410 8 50 -16 39 -47 -23 -29 -56 -33 -60 -58
-54 -56 13 -138 62 -187 110 -164 165 -164 425 0 590 163 162 421 164 586 4
40 -39 51 -45 64 -35 14 10 9 18 -35 63 -116 115 -282 159 -439 117z"/>
<path d="M350 1310 l0 -90 80 0 80 0 0 -515 0 -515 200 0 c367 0 504 29 647
136 72 54 145 198 168 331 48 275 -33 514 -216 639 -134 90 -218 104 -656 104
l-303 0 0 -90z m727 -113 c149 -40 231 -163 241 -362 5 -117 -7 -187 -47 -271
-67 -139 -195 -194 -452 -194 l-89 0 0 427 0 426 148 -6 c81 -3 170 -12 199
-20z"/>
<path d="M886 1120 c-9 -67 -30 -123 -66 -177 -20 -30 -29 -52 -24 -65 6 -19
6 -19 29 2 32 31 72 108 90 175 8 32 16 59 18 61 2 2 54 -48 117 -111 l115
-115 -138 0 -137 0 0 -235 c0 -228 1 -235 20 -235 19 0 20 7 20 215 l0 215
170 0 c163 0 170 1 170 20 0 15 -7 20 -27 20 -21 0 -57 29 -168 140 -89 88
-149 140 -162 140 -17 0 -22 -8 -27 -50z"/>
<path d="M740 406 c0 -9 7 -16 16 -16 9 0 14 5 12 12 -6 18 -28 21 -28 4z"/>
</g>
</svg>
